<svg width="41" height="41" viewBox="0 0 41 41" fill="none" xmlns="http://www.w3.org/2000/svg">
<path d="M21.6973 17.4219H14.7451V18.6899H21.6973V17.4219Z" fill="#D22238"/>
<path d="M23.8796 20.4893H14.7451V21.7499H23.8796V20.4893Z" fill="#D22238"/>
<path d="M23.8796 23.5488H14.7451V24.8169H23.8796V23.5488Z" fill="#D22238"/>
<path d="M30.271 10.4258H11.5303C10.1664 10.4258 9.06055 11.5316 9.06055 12.8955V20.6219C9.06055 21.9342 10.1295 23.0032 11.4418 23.0032C11.84 23.0032 12.2307 22.9073 12.5625 22.723V30.206C12.5625 30.6041 12.8868 30.9285 13.285 30.9285H28.5238C28.8629 30.9285 29.1357 30.6557 29.1357 30.3166V22.7083C29.4674 22.8852 29.8508 23.0179 30.3153 23.0105C31.5907 22.9737 32.6302 21.8604 32.6302 20.5334V12.785C32.6302 11.48 31.5686 10.4258 30.271 10.4258ZM27.8676 16.2942V29.6678H13.8231V16.2869C13.8231 16.1615 13.9264 16.0657 14.0443 16.0657H27.6391C27.7644 16.0657 27.8676 16.1689 27.8676 16.2942ZM11.6851 14.7976V16.0657H12.5625V20.526C12.5625 21.1379 12.157 21.654 11.6114 21.7351C11.2796 21.7867 10.9626 21.6909 10.7193 21.4771C10.4761 21.2633 10.3286 20.9536 10.3286 20.6292V12.7923C10.3286 12.1878 10.8226 11.6938 11.4271 11.6938H30.271C30.8756 11.6938 31.3695 12.1878 31.3695 12.7923V20.6292C31.3695 20.9536 31.2295 21.2633 30.9788 21.4771C30.7281 21.6909 30.4111 21.7867 30.0867 21.7351C29.5412 21.654 29.1357 21.1379 29.1357 20.526V16.0657H30.013V14.7976H11.6851Z" fill="#D22238"/>
</svg>
