<svg width="110" height="94" viewBox="0 0 110 94" fill="none" xmlns="http://www.w3.org/2000/svg">
<path d="M32.816 43.5371L32.036 49.9571H26.516V57.6371H18.656V49.9571H2.03602L1.01602 43.5371L20.696 19.2371H26.516V43.5371H32.816ZM18.656 31.7171L9.41602 43.5371H18.656V31.7171ZM36.6902 36.3971C36.6902 32.9571 37.4102 29.9171 38.8502 27.2771C40.2902 24.6371 42.2702 22.5571 44.7902 21.0371C47.3102 19.5171 50.1902 18.7571 53.4302 18.7571C56.6702 18.7571 59.5302 19.5171 62.0102 21.0371C64.5302 22.5571 66.4902 24.6371 67.8902 27.2771C69.3302 29.8771 70.0502 32.8771 70.0502 36.2771C70.0502 39.7571 69.3302 42.8571 67.8902 45.5771C66.4502 48.2571 64.4702 50.3771 61.9502 51.9371C59.4702 53.4971 56.6102 54.2771 53.3702 54.2771C50.1702 54.2771 47.3102 53.5171 44.7902 51.9971C42.2702 50.4371 40.2902 48.3171 38.8502 45.6371C37.4102 42.9171 36.6902 39.8371 36.6902 36.3971ZM43.8302 36.2171C43.8302 38.4171 44.2302 40.3771 45.0302 42.0971C45.8702 43.8171 47.0102 45.1771 48.4502 46.1771C49.9302 47.1371 51.5902 47.6171 53.4302 47.6171C55.3102 47.6171 56.9702 47.1371 58.4102 46.1771C59.8502 45.2171 60.9702 43.8971 61.7702 42.2171C62.6102 40.5371 63.0302 38.6371 63.0302 36.5171C63.0302 34.3571 62.6102 32.4371 61.7702 30.7571C60.9302 29.0771 59.7902 27.7571 58.3502 26.7971C56.9102 25.8371 55.2502 25.3571 53.3702 25.3571C51.5302 25.3571 49.8902 25.8371 48.4502 26.7971C47.0102 27.7171 45.8702 28.9971 45.0302 30.6371C44.2302 32.2371 43.8302 34.0971 43.8302 36.2171ZM74.277 36.3971C74.277 32.9571 74.997 29.9171 76.437 27.2771C77.877 24.6371 79.857 22.5571 82.377 21.0371C84.897 19.5171 87.777 18.7571 91.017 18.7571C94.257 18.7571 97.117 19.5171 99.597 21.0371C102.117 22.5571 104.077 24.6371 105.477 27.2771C106.917 29.8771 107.637 32.8771 107.637 36.2771C107.637 39.7571 106.917 42.8571 105.477 45.5771C104.037 48.2571 102.057 50.3771 99.537 51.9371C97.057 53.4971 94.197 54.2771 90.957 54.2771C87.757 54.2771 84.897 53.5171 82.377 51.9971C79.857 50.4371 77.877 48.3171 76.437 45.6371C74.997 42.9171 74.277 39.8371 74.277 36.3971ZM81.417 36.2171C81.417 38.4171 81.817 40.3771 82.617 42.0971C83.457 43.8171 84.597 45.1771 86.037 46.1771C87.517 47.1371 89.177 47.6171 91.017 47.6171C92.897 47.6171 94.557 47.1371 95.997 46.1771C97.437 45.2171 98.557 43.8971 99.357 42.2171C100.197 40.5371 100.617 38.6371 100.617 36.5171C100.617 34.3571 100.197 32.4371 99.357 30.7571C98.517 29.0771 97.377 27.7571 95.937 26.7971C94.497 25.8371 92.837 25.3571 90.957 25.3571C89.117 25.3571 87.477 25.8371 86.037 26.7971C84.597 27.7171 83.457 28.9971 82.617 30.6371C81.817 32.2371 81.417 34.0971 81.417 36.2171Z" fill="url(#paint0_linear_1755_1876)"/>
<path d="M4.34602 75.3703H5.48602L9.40102 85.4803L8.23102 85.6603L7.09102 82.6753H2.78602L1.72102 85.5703H0.566016L4.34602 75.3703ZM6.74602 81.7153L4.90102 76.9303L3.11602 81.7153H6.74602ZM11.9866 85.5703H10.8016V78.2953H11.6866L11.8816 79.3303C12.2216 78.9803 12.6316 78.6853 13.1116 78.4453C13.6016 78.1953 14.0666 78.0703 14.5066 78.0703C15.0166 78.0703 15.4316 78.1853 15.7516 78.4153C16.0716 78.6353 16.3066 78.9353 16.4566 79.3153C16.7966 78.9753 17.2066 78.6853 17.6866 78.4453C18.1766 78.1953 18.6366 78.0703 19.0666 78.0703C19.8366 78.0703 20.3916 78.3153 20.7316 78.8053C21.0816 79.2953 21.2566 79.9053 21.2566 80.6353V85.5553H20.0716V80.8003C20.0716 80.3003 19.9866 79.8903 19.8166 79.5703C19.6466 79.2503 19.3316 79.0903 18.8716 79.0903C18.5516 79.0903 18.1866 79.2053 17.7766 79.4353C17.3766 79.6653 17.0066 79.9503 16.6666 80.2903C16.6766 80.4003 16.6816 80.5153 16.6816 80.6353V85.5553H15.4966V80.8003C15.4966 80.3003 15.4116 79.8903 15.2416 79.5703C15.0816 79.2503 14.7666 79.0903 14.2966 79.0903C13.9666 79.0903 13.5816 79.2203 13.1416 79.4803C12.7116 79.7303 12.3266 80.0403 11.9866 80.4103V85.5703ZM23.992 79.6303L23.647 78.7303C23.837 78.6103 24.082 78.5053 24.382 78.4153C24.682 78.3153 24.982 78.2403 25.282 78.1903C25.592 78.1303 25.847 78.1003 26.047 78.1003C26.607 78.1003 27.097 78.2053 27.517 78.4153C27.947 78.6253 28.282 78.9153 28.522 79.2853C28.762 79.6553 28.882 80.0753 28.882 80.5453V85.5703H27.997L27.847 84.8353C27.607 85.0653 27.282 85.2753 26.872 85.4653C26.472 85.6553 26.072 85.7503 25.672 85.7503C24.832 85.7503 24.207 85.5353 23.797 85.1053C23.387 84.6753 23.182 84.1403 23.182 83.5003C23.182 82.7903 23.427 82.2453 23.917 81.8653C24.407 81.4753 25.037 81.2803 25.807 81.2803H27.682V80.8753C27.682 80.3753 27.562 79.9603 27.322 79.6303C27.082 79.3003 26.672 79.1353 26.092 79.1353C25.612 79.1353 25.207 79.1903 24.877 79.3003C24.557 79.4003 24.262 79.5103 23.992 79.6303ZM24.277 83.5003C24.277 83.8103 24.382 84.1053 24.592 84.3853C24.812 84.6653 25.162 84.8053 25.642 84.8053C26.062 84.8053 26.447 84.7003 26.797 84.4903C27.147 84.2803 27.447 84.0253 27.697 83.7253V82.0753H25.777C25.287 82.0753 24.912 82.2203 24.652 82.5103C24.402 82.7903 24.277 83.1203 24.277 83.5003ZM36.1762 78.2953L36.2363 78.9253L31.8262 84.6403H36.0562L36.2063 85.5703H30.5212L30.3712 84.9553L34.7062 79.2403H31.0012L30.7312 78.2953H36.1762ZM38.3755 76.8403C38.1455 76.8403 37.9555 76.7653 37.8055 76.6153C37.6555 76.4553 37.5805 76.2653 37.5805 76.0453C37.5805 75.8153 37.6555 75.6253 37.8055 75.4753C37.9555 75.3153 38.1455 75.2353 38.3755 75.2353C38.5855 75.2353 38.7705 75.3153 38.9305 75.4753C39.1005 75.6253 39.1855 75.8153 39.1855 76.0453C39.1855 76.2653 39.1005 76.4553 38.9305 76.6153C38.7705 76.7653 38.5855 76.8403 38.3755 76.8403ZM38.9905 85.5703H37.7755V78.2953H38.9905V85.5703ZM42.3517 85.5703H41.1517V78.2953H42.0517L42.2467 79.3303C42.5867 78.9803 43.0067 78.6853 43.5067 78.4453C44.0167 78.1953 44.5117 78.0703 44.9917 78.0703C45.7917 78.0703 46.3717 78.3153 46.7317 78.8053C47.0917 79.2953 47.2717 79.9053 47.2717 80.6353V85.5553H46.0867V80.8003C46.0867 80.3003 45.9917 79.8903 45.8017 79.5703C45.6217 79.2503 45.2817 79.0903 44.7817 79.0903C44.4117 79.0903 43.9967 79.2203 43.5367 79.4803C43.0867 79.7303 42.6917 80.0403 42.3517 80.4103V85.5703ZM55.3311 78.2953V86.3503C55.3311 86.8603 55.2011 87.3153 54.9411 87.7153C54.6811 88.1253 54.3061 88.4453 53.8161 88.6753C53.3261 88.9053 52.7361 89.0203 52.0461 89.0203C51.8461 89.0203 51.5861 88.9903 51.2661 88.9303C50.9561 88.8803 50.6411 88.8053 50.3211 88.7053C50.0011 88.6053 49.7311 88.4853 49.5111 88.3453L49.8711 87.4903C50.1711 87.6303 50.4811 87.7553 50.8011 87.8653C51.1211 87.9853 51.5211 88.0453 52.0011 88.0453C52.6011 88.0453 53.1061 87.9003 53.5161 87.6103C53.9261 87.3303 54.1311 86.9053 54.1311 86.3353V85.1953C53.8511 85.3853 53.5561 85.5253 53.2461 85.6153C52.9461 85.7153 52.6711 85.7653 52.4211 85.7653C51.6911 85.7653 51.0661 85.6053 50.5461 85.2853C50.0261 84.9553 49.6311 84.5003 49.3611 83.9203C49.0911 83.3403 48.9561 82.6653 48.9561 81.8953C48.9561 81.1553 49.0961 80.5003 49.3761 79.9303C49.6561 79.3603 50.0561 78.9153 50.5761 78.5953C51.1061 78.2653 51.7311 78.1003 52.4511 78.1003C52.7511 78.1003 53.0661 78.1653 53.3961 78.2953C53.7361 78.4153 54.0511 78.5903 54.3411 78.8203L54.6111 78.2953H55.3311ZM50.1561 81.8803C50.1561 82.7203 50.3411 83.4103 50.7111 83.9503C51.0911 84.4903 51.6561 84.7603 52.4061 84.7603C52.7761 84.7603 53.0961 84.7003 53.3661 84.5803C53.6361 84.4603 53.8911 84.2903 54.1311 84.0703V79.7503C53.9011 79.5503 53.6511 79.3953 53.3811 79.2853C53.1111 79.1653 52.7911 79.1053 52.4211 79.1053C51.9311 79.1053 51.5161 79.2303 51.1761 79.4803C50.8361 79.7203 50.5811 80.0503 50.4111 80.4703C50.2411 80.8903 50.1561 81.3603 50.1561 81.8803ZM68.4526 75.7453L68.0776 76.6003C67.7376 76.4803 67.4176 76.3803 67.1176 76.3003C66.8176 76.2203 66.4126 76.1803 65.9026 76.1803C65.2326 76.1803 64.6276 76.3653 64.0876 76.7353C63.5476 77.1053 63.1226 77.6153 62.8126 78.2653C62.5026 78.9153 62.3476 79.6653 62.3476 80.5153C62.3476 81.2853 62.4776 81.9953 62.7376 82.6453C63.0076 83.2853 63.3976 83.7953 63.9076 84.1753C64.4276 84.5553 65.0476 84.7453 65.7676 84.7453C66.2776 84.7453 66.7076 84.7053 67.0576 84.6253C67.4176 84.5353 67.7376 84.4253 68.0176 84.2953L68.4676 85.1953C68.2676 85.3053 68.0126 85.4053 67.7026 85.4953C67.3926 85.5853 67.0726 85.6553 66.7426 85.7053C66.4126 85.7553 66.1026 85.7803 65.8126 85.7803C65.0326 85.7803 64.3476 85.6403 63.7576 85.3603C63.1676 85.0803 62.6726 84.7003 62.2726 84.2203C61.8826 83.7303 61.5876 83.1703 61.3876 82.5403C61.1976 81.9003 61.1026 81.2303 61.1026 80.5303C61.1026 79.5203 61.2926 78.6103 61.6726 77.8003C62.0626 76.9903 62.6176 76.3503 63.3376 75.8803C64.0576 75.4003 64.9126 75.1603 65.9026 75.1603C66.1026 75.1603 66.3626 75.1803 66.6826 75.2203C67.0026 75.2603 67.3226 75.3253 67.6426 75.4153C67.9626 75.4953 68.2326 75.6053 68.4526 75.7453ZM71.3872 85.5703H70.2022V75.1303L71.3872 74.9803V85.5703ZM74.2917 76.8403C74.0617 76.8403 73.8717 76.7653 73.7217 76.6153C73.5717 76.4553 73.4967 76.2653 73.4967 76.0453C73.4967 75.8153 73.5717 75.6253 73.7217 75.4753C73.8717 75.3153 74.0617 75.2353 74.2917 75.2353C74.5017 75.2353 74.6867 75.3153 74.8467 75.4753C75.0167 75.6253 75.1017 75.8153 75.1017 76.0453C75.1017 76.2653 75.0167 76.4553 74.8467 76.6153C74.6867 76.7653 74.5017 76.8403 74.2917 76.8403ZM74.9067 85.5703H73.6917V78.2953H74.9067V85.5703ZM83.1279 82.1203H77.8479C77.8679 82.6303 77.9679 83.0853 78.1479 83.4853C78.3279 83.8853 78.6029 84.2003 78.9729 84.4303C79.3429 84.6603 79.8279 84.7753 80.4279 84.7753C80.8479 84.7753 81.2279 84.7203 81.5679 84.6103C81.9079 84.4903 82.2729 84.3353 82.6629 84.1453L83.0379 85.0153C82.6779 85.2153 82.2879 85.3903 81.8679 85.5403C81.4579 85.6803 80.9829 85.7503 80.4429 85.7503C79.5929 85.7503 78.8829 85.5903 78.3129 85.2703C77.7529 84.9403 77.3329 84.4903 77.0529 83.9203C76.7729 83.3403 76.6329 82.6703 76.6329 81.9103C76.6329 81.1703 76.7629 80.5153 77.0229 79.9453C77.2929 79.3653 77.6779 78.9153 78.1779 78.5953C78.6879 78.2653 79.3029 78.1003 80.0229 78.1003C80.7529 78.1003 81.3429 78.2753 81.7929 78.6253C82.2529 78.9753 82.5879 79.4453 82.7979 80.0353C83.0179 80.6253 83.1279 81.2803 83.1279 82.0003V82.1203ZM77.8779 81.3103H81.9579C81.8779 80.6503 81.6829 80.1203 81.3729 79.7203C81.0729 79.3103 80.6079 79.1053 79.9779 79.1053C79.3279 79.1053 78.8329 79.3103 78.4929 79.7203C78.1529 80.1303 77.9479 80.6603 77.8779 81.3103ZM86.0532 85.5703H84.8532V78.2953H85.7532L85.9482 79.3303C86.2882 78.9803 86.7082 78.6853 87.2082 78.4453C87.7182 78.1953 88.2132 78.0703 88.6932 78.0703C89.4932 78.0703 90.0732 78.3153 90.4332 78.8053C90.7932 79.2953 90.9732 79.9053 90.9732 80.6353V85.5553H89.7882V80.8003C89.7882 80.3003 89.6932 79.8903 89.5032 79.5703C89.3232 79.2503 88.9832 79.0903 88.4832 79.0903C88.1132 79.0903 87.6982 79.2203 87.2382 79.4803C86.7882 79.7303 86.3932 80.0403 86.0532 80.4103V85.5703ZM95.9727 78.4153L96.3627 79.3153H94.6527V83.5153C94.6527 83.8853 94.7327 84.1853 94.8927 84.4153C95.0527 84.6453 95.3177 84.7603 95.6877 84.7603C95.7977 84.7603 95.9127 84.7453 96.0327 84.7153C96.1627 84.6753 96.2677 84.6403 96.3477 84.6103L96.6177 85.5403C96.4877 85.6003 96.3227 85.6553 96.1227 85.7053C95.9227 85.7653 95.7177 85.7953 95.5077 85.7953C94.8877 85.7953 94.3927 85.6153 94.0227 85.2553C93.6527 84.8953 93.4677 84.3703 93.4677 83.6803V79.3153H92.4177L92.4027 78.4153H93.4677V76.5553L94.6527 76.2253V78.4153H95.9727ZM97.8374 85.1503L98.2124 84.2953C98.4924 84.4353 98.7974 84.5553 99.1274 84.6553C99.4674 84.7553 99.8174 84.8053 100.177 84.8053C100.717 84.8053 101.147 84.7103 101.467 84.5203C101.797 84.3303 101.962 84.0653 101.962 83.7253C101.962 83.4053 101.782 83.1303 101.422 82.9003C101.072 82.6703 100.652 82.4753 100.162 82.3153C99.7824 82.1853 99.4074 82.0303 99.0374 81.8503C98.6774 81.6603 98.3774 81.4303 98.1374 81.1603C97.9074 80.8803 97.7924 80.5453 97.7924 80.1553C97.7924 79.5153 98.0324 79.0153 98.5124 78.6553C99.0024 78.2853 99.6674 78.1003 100.507 78.1003C100.707 78.1003 100.947 78.1253 101.227 78.1753C101.517 78.2253 101.797 78.3003 102.067 78.4003C102.347 78.5003 102.582 78.6153 102.772 78.7453L102.397 79.5553C102.157 79.4453 101.882 79.3353 101.572 79.2253C101.262 79.1153 100.897 79.0603 100.477 79.0603C100.027 79.0603 99.6574 79.1603 99.3674 79.3603C99.0874 79.5603 98.9474 79.8103 98.9474 80.1103C98.9474 80.3903 99.1074 80.6253 99.4274 80.8153C99.7574 81.0053 100.162 81.1803 100.642 81.3403C101.032 81.4903 101.412 81.6703 101.782 81.8803C102.162 82.0803 102.472 82.3303 102.712 82.6303C102.962 82.9203 103.087 83.2603 103.087 83.6503C103.087 84.3103 102.837 84.8303 102.337 85.2103C101.837 85.5803 101.112 85.7653 100.162 85.7653C99.9624 85.7653 99.7174 85.7403 99.4274 85.6903C99.1374 85.6503 98.8474 85.5853 98.5574 85.4953C98.2674 85.3953 98.0274 85.2803 97.8374 85.1503Z" fill="#858585"/>
<defs>
<linearGradient id="paint0_linear_1755_1876" x1="54.916" y1="0.49707" x2="54.916" y2="72.4971" gradientUnits="userSpaceOnUse">
<stop stop-color="#F00000"/>
<stop offset="1" stop-color="#9109F7"/>
</linearGradient>
</defs>
</svg>
