<svg width="95" height="94" viewBox="0 0 95 94" fill="none" xmlns="http://www.w3.org/2000/svg">
<path d="M11.853 41.1371H4.95305L6.03305 19.5371H27.993L27.153 25.8371H12.633L12.273 32.9771C12.913 32.6571 13.613 32.4371 14.373 32.3171C15.133 32.1571 15.913 32.0771 16.713 32.0771C19.713 32.0771 22.193 32.6571 24.153 33.8171C26.113 34.9771 27.593 36.5171 28.593 38.4371C29.593 40.3571 30.093 42.4371 30.093 44.6771C30.093 47.2771 29.493 49.5971 28.293 51.6371C27.093 53.6371 25.393 55.1971 23.193 56.3171C20.993 57.4771 18.373 58.0571 15.333 58.0571C13.093 58.0571 10.813 57.6771 8.49305 56.9171C6.17305 56.1571 4.13305 55.2971 2.37305 54.3371L6.21305 48.8771C7.81305 49.7571 9.31305 50.4171 10.713 50.8571C12.113 51.2971 13.713 51.5171 15.513 51.5171C17.633 51.5171 19.413 50.9171 20.853 49.7171C22.293 48.4771 23.013 46.7971 23.013 44.6771C23.013 42.7171 22.433 41.1771 21.273 40.0571C20.153 38.8971 18.733 38.3171 17.013 38.3171C15.613 38.3171 14.473 38.6371 13.593 39.2771C12.713 39.8771 12.133 40.4971 11.853 41.1371ZM46.6962 18.7571C49.4962 18.7571 51.8162 19.2371 53.6562 20.1971C55.5362 21.1571 56.9362 22.4371 57.8562 24.0371C58.8162 25.5971 59.2962 27.3171 59.2962 29.1971C59.2962 30.3971 59.0562 31.5371 58.5762 32.6171C58.0962 33.6971 57.4762 34.6371 56.7162 35.4371C55.9962 36.1971 55.2362 36.7571 54.4362 37.1171C55.1962 37.2771 55.9962 37.7771 56.8362 38.6171C57.7162 39.4171 58.4562 40.4771 59.0562 41.7971C59.6962 43.0771 60.0162 44.5571 60.0162 46.2371C60.0162 48.4371 59.4362 50.4371 58.2762 52.2371C57.1162 54.0371 55.4762 55.4571 53.3562 56.4971C51.2362 57.5371 48.7362 58.0571 45.8562 58.0571C43.6562 58.0571 41.3762 57.6571 39.0162 56.8571C36.6962 56.0971 34.6162 55.2371 32.7762 54.2771L36.7362 49.0571C38.3362 50.0171 39.8362 50.7171 41.2362 51.1571C42.6362 51.5571 44.2162 51.7571 45.9762 51.7571C47.1762 51.7571 48.2962 51.5371 49.3362 51.0971C50.3762 50.6571 51.2162 50.0371 51.8562 49.2371C52.5362 48.3971 52.8762 47.4171 52.8762 46.2971C52.8762 44.4571 52.1562 42.9971 50.7162 41.9171C49.3162 40.8371 47.0362 40.2971 43.8762 40.2971H41.3562L40.2762 34.2371H44.2362C46.6762 34.2371 48.5962 33.7971 49.9962 32.9171C51.4362 31.9971 52.1562 30.7971 52.1562 29.3171C52.1562 28.1571 51.6362 27.1571 50.5962 26.3171C49.5962 25.4771 48.2362 25.0571 46.5162 25.0571C44.7162 25.0571 43.0362 25.3971 41.4762 26.0771C39.9562 26.7171 38.6562 27.4171 37.5762 28.1771L33.9162 22.9571C35.8762 21.6771 37.8962 20.6571 39.9762 19.8971C42.0562 19.1371 44.2962 18.7571 46.6962 18.7571ZM74.6787 53.4971H66.9387V11.7971L74.6787 11.1371V35.0171L87.1587 23.5571L91.5387 29.0771L83.3787 36.2171L94.0587 53.4971H85.1187L77.7987 41.1971L74.6787 43.9571V53.4971Z" fill="url(#paint0_linear_1755_1873)"/>
<path d="M3.45305 85.5703H2.26805V75.3703H5.04305C5.75305 75.3703 6.39305 75.4753 6.96305 75.6853C7.53305 75.8953 7.98305 76.2303 8.31305 76.6903C8.64305 77.1403 8.80805 77.7403 8.80805 78.4903C8.80805 79.2403 8.62805 79.8553 8.26805 80.3353C7.90805 80.8053 7.43305 81.1553 6.84305 81.3853C6.25305 81.6053 5.60305 81.7153 4.89305 81.7153H3.45305V85.5703ZM5.05805 76.3753H3.45305V80.7103H4.93805C5.67805 80.7103 6.29805 80.5453 6.79805 80.2153C7.30805 79.8753 7.57305 79.3153 7.59305 78.5353C7.59305 77.7053 7.36305 77.1403 6.90305 76.8403C6.44305 76.5303 5.82805 76.3753 5.05805 76.3753ZM11.7259 85.5703H10.5259V78.2953H11.2459L11.6209 79.4653C11.8009 79.3153 12.0259 79.1503 12.2959 78.9703C12.5759 78.7803 12.8659 78.6203 13.1659 78.4903C13.4759 78.3603 13.7609 78.2953 14.0209 78.2953L14.3059 79.2403C14.0259 79.2403 13.7259 79.3053 13.4059 79.4353C13.0859 79.5653 12.7759 79.7353 12.4759 79.9453C12.1859 80.1453 11.9359 80.3503 11.7259 80.5603V85.5703ZM18.7192 85.7653C17.9992 85.7653 17.3792 85.6053 16.8592 85.2853C16.3392 84.9553 15.9392 84.5003 15.6592 83.9203C15.3892 83.3303 15.2542 82.6603 15.2542 81.9103C15.2542 81.1703 15.3992 80.5153 15.6892 79.9453C15.9792 79.3753 16.3892 78.9253 16.9192 78.5953C17.4492 78.2653 18.0842 78.1003 18.8242 78.1003C19.9142 78.1003 20.7692 78.4503 21.3892 79.1503C22.0092 79.8503 22.3192 80.7853 22.3192 81.9553C22.3192 82.6953 22.1692 83.3503 21.8692 83.9203C21.5792 84.4903 21.1642 84.9403 20.6242 85.2703C20.0942 85.5903 19.4592 85.7553 18.7192 85.7653ZM18.7492 84.7603C19.2492 84.7603 19.6692 84.6403 20.0092 84.4003C20.3592 84.1503 20.6292 83.8153 20.8192 83.3953C21.0092 82.9653 21.1042 82.4903 21.1042 81.9703C21.1042 81.1403 20.9092 80.4553 20.5192 79.9153C20.1292 79.3753 19.5592 79.1053 18.8092 79.1053C18.3192 79.1053 17.8992 79.2303 17.5492 79.4803C17.1992 79.7203 16.9292 80.0553 16.7392 80.4853C16.5592 80.9053 16.4642 81.3753 16.4542 81.8953C16.4542 82.7153 16.6492 83.4003 17.0392 83.9503C17.4292 84.4903 17.9992 84.7603 18.7492 84.7603ZM24.8262 76.8403C24.5962 76.8403 24.4012 76.7653 24.2412 76.6153C24.0912 76.4553 24.0162 76.2653 24.0162 76.0453C24.0162 75.8153 24.0912 75.6253 24.2412 75.4753C24.4012 75.3153 24.5962 75.2353 24.8262 75.2353C25.0362 75.2353 25.2212 75.3153 25.3812 75.4753C25.5512 75.6253 25.6362 75.8153 25.6362 76.0453C25.6362 76.2653 25.5512 76.4553 25.3812 76.6153C25.2212 76.7653 25.0362 76.8403 24.8262 76.8403ZM25.4262 78.2953V86.0203C25.4262 86.5203 25.3862 86.9403 25.3062 87.2803C25.2262 87.6203 25.0512 87.9053 24.7812 88.1353C24.5212 88.3753 24.1162 88.5803 23.5662 88.7503L23.1012 87.8953C23.4412 87.7753 23.6912 87.6403 23.8512 87.4903C24.0112 87.3403 24.1112 87.1503 24.1512 86.9203C24.2012 86.6903 24.2262 86.3903 24.2262 86.0203V78.2953H25.4262ZM33.8043 82.1203H28.5243C28.5443 82.6303 28.6443 83.0853 28.8243 83.4853C29.0043 83.8853 29.2793 84.2003 29.6493 84.4303C30.0193 84.6603 30.5043 84.7753 31.1043 84.7753C31.5243 84.7753 31.9043 84.7203 32.2443 84.6103C32.5843 84.4903 32.9493 84.3353 33.3393 84.1453L33.7143 85.0153C33.3543 85.2153 32.9643 85.3903 32.5443 85.5403C32.1343 85.6803 31.6593 85.7503 31.1193 85.7503C30.2693 85.7503 29.5593 85.5903 28.9893 85.2703C28.4293 84.9403 28.0093 84.4903 27.7293 83.9203C27.4493 83.3403 27.3093 82.6703 27.3093 81.9103C27.3093 81.1703 27.4393 80.5153 27.6993 79.9453C27.9693 79.3653 28.3543 78.9153 28.8543 78.5953C29.3643 78.2653 29.9793 78.1003 30.6993 78.1003C31.4293 78.1003 32.0193 78.2753 32.4693 78.6253C32.9293 78.9753 33.2643 79.4453 33.4743 80.0353C33.6943 80.6253 33.8043 81.2803 33.8043 82.0003V82.1203ZM28.5543 81.3103H32.6343C32.5543 80.6503 32.3593 80.1203 32.0493 79.7203C31.7493 79.3103 31.2843 79.1053 30.6543 79.1053C30.0043 79.1053 29.5093 79.3103 29.1693 79.7203C28.8293 80.1303 28.6243 80.6603 28.5543 81.3103ZM40.6146 84.2503L40.9896 85.1053C40.7796 85.2453 40.5246 85.3653 40.2246 85.4653C39.9346 85.5553 39.6396 85.6253 39.3396 85.6753C39.0496 85.7353 38.8046 85.7653 38.6046 85.7653C37.8746 85.7653 37.2446 85.6053 36.7146 85.2853C36.1946 84.9553 35.7946 84.5003 35.5146 83.9203C35.2346 83.3403 35.0946 82.6703 35.0946 81.9103C35.0946 81.1703 35.2396 80.5153 35.5296 79.9453C35.8196 79.3653 36.2346 78.9153 36.7746 78.5953C37.3146 78.2653 37.9496 78.1003 38.6796 78.1003C38.8796 78.1003 39.1246 78.1303 39.4146 78.1903C39.7046 78.2403 39.9946 78.3153 40.2846 78.4153C40.5846 78.5153 40.8346 78.6303 41.0346 78.7603L40.6746 79.6003C40.3946 79.4803 40.1046 79.3703 39.8046 79.2703C39.5046 79.1603 39.1196 79.1053 38.6496 79.1053C38.1596 79.1053 37.7396 79.2303 37.3896 79.4803C37.0396 79.7203 36.7696 80.0553 36.5796 80.4853C36.3996 80.9053 36.3046 81.3753 36.2946 81.8953C36.2946 82.7153 36.4896 83.4003 36.8796 83.9503C37.2696 84.4903 37.8396 84.7603 38.5896 84.7603C39.0796 84.7603 39.4696 84.7103 39.7596 84.6103C40.0496 84.5103 40.3346 84.3903 40.6146 84.2503ZM45.5797 78.4153L45.9697 79.3153H44.2597V83.5153C44.2597 83.8853 44.3397 84.1853 44.4997 84.4153C44.6597 84.6453 44.9247 84.7603 45.2947 84.7603C45.4047 84.7603 45.5197 84.7453 45.6397 84.7153C45.7697 84.6753 45.8747 84.6403 45.9547 84.6103L46.2247 85.5403C46.0947 85.6003 45.9297 85.6553 45.7297 85.7053C45.5297 85.7653 45.3247 85.7953 45.1147 85.7953C44.4947 85.7953 43.9997 85.6153 43.6297 85.2553C43.2597 84.8953 43.0747 84.3703 43.0747 83.6803V79.3153H42.0247L42.0097 78.4153H43.0747V76.5553L44.2597 76.2253V78.4153H45.5797ZM47.4444 85.1503L47.8194 84.2953C48.0994 84.4353 48.4044 84.5553 48.7344 84.6553C49.0744 84.7553 49.4244 84.8053 49.7844 84.8053C50.3244 84.8053 50.7544 84.7103 51.0744 84.5203C51.4044 84.3303 51.5694 84.0653 51.5694 83.7253C51.5694 83.4053 51.3894 83.1303 51.0294 82.9003C50.6794 82.6703 50.2594 82.4753 49.7694 82.3153C49.3894 82.1853 49.0144 82.0303 48.6444 81.8503C48.2844 81.6603 47.9844 81.4303 47.7444 81.1603C47.5144 80.8803 47.3994 80.5453 47.3994 80.1553C47.3994 79.5153 47.6394 79.0153 48.1194 78.6553C48.6094 78.2853 49.2744 78.1003 50.1144 78.1003C50.3144 78.1003 50.5544 78.1253 50.8344 78.1753C51.1244 78.2253 51.4044 78.3003 51.6744 78.4003C51.9544 78.5003 52.1894 78.6153 52.3794 78.7453L52.0044 79.5553C51.7644 79.4453 51.4894 79.3353 51.1794 79.2253C50.8694 79.1153 50.5044 79.0603 50.0844 79.0603C49.6344 79.0603 49.2644 79.1603 48.9744 79.3603C48.6944 79.5603 48.5544 79.8103 48.5544 80.1103C48.5544 80.3903 48.7144 80.6253 49.0344 80.8153C49.3644 81.0053 49.7694 81.1803 50.2494 81.3403C50.6394 81.4903 51.0194 81.6703 51.3894 81.8803C51.7694 82.0803 52.0794 82.3303 52.3194 82.6303C52.5694 82.9203 52.6944 83.2603 52.6944 83.6503C52.6944 84.3103 52.4444 84.8303 51.9444 85.2103C51.4444 85.5803 50.7194 85.7653 49.7694 85.7653C49.5694 85.7653 49.3244 85.7403 49.0344 85.6903C48.7444 85.6503 48.4544 85.5853 48.1644 85.4953C47.8744 85.3953 47.6344 85.2803 47.4444 85.1503ZM62.1492 85.5703H58.6692V75.3703H62.2392C63.2892 75.3703 64.1392 75.5953 64.7892 76.0453C65.4492 76.4953 65.9342 77.1003 66.2442 77.8603C66.5542 78.6203 66.7092 79.4703 66.7092 80.4103C66.7092 81.3803 66.5342 82.2553 66.1842 83.0353C65.8342 83.8153 65.3192 84.4353 64.6392 84.8953C63.9692 85.3453 63.1392 85.5703 62.1492 85.5703ZM62.2992 76.3753H59.8542V84.5803H62.1642C62.8342 84.5803 63.4192 84.4153 63.9192 84.0853C64.4292 83.7553 64.8242 83.2803 65.1042 82.6603C65.3842 82.0403 65.5242 81.2953 65.5242 80.4253C65.5242 79.6453 65.4092 78.9503 65.1792 78.3403C64.9492 77.7303 64.5942 77.2503 64.1142 76.9003C63.6342 76.5503 63.0292 76.3753 62.2992 76.3753ZM71.5977 85.7653C70.8777 85.7653 70.2577 85.6053 69.7377 85.2853C69.2177 84.9553 68.8177 84.5003 68.5377 83.9203C68.2677 83.3303 68.1327 82.6603 68.1327 81.9103C68.1327 81.1703 68.2777 80.5153 68.5677 79.9453C68.8577 79.3753 69.2677 78.9253 69.7977 78.5953C70.3277 78.2653 70.9627 78.1003 71.7027 78.1003C72.7927 78.1003 73.6477 78.4503 74.2677 79.1503C74.8877 79.8503 75.1977 80.7853 75.1977 81.9553C75.1977 82.6953 75.0477 83.3503 74.7477 83.9203C74.4577 84.4903 74.0427 84.9403 73.5027 85.2703C72.9727 85.5903 72.3377 85.7553 71.5977 85.7653ZM71.6277 84.7603C72.1277 84.7603 72.5477 84.6403 72.8877 84.4003C73.2377 84.1503 73.5077 83.8153 73.6977 83.3953C73.8877 82.9653 73.9827 82.4903 73.9827 81.9703C73.9827 81.1403 73.7877 80.4553 73.3977 79.9153C73.0077 79.3753 72.4377 79.1053 71.6877 79.1053C71.1977 79.1053 70.7777 79.2303 70.4277 79.4803C70.0777 79.7203 69.8077 80.0553 69.6177 80.4853C69.4377 80.9053 69.3427 81.3753 69.3327 81.8953C69.3327 82.7153 69.5277 83.4003 69.9177 83.9503C70.3077 84.4903 70.8777 84.7603 71.6277 84.7603ZM78.1097 85.5703H76.9097V78.2953H77.8097L78.0047 79.3303C78.3447 78.9803 78.7647 78.6853 79.2647 78.4453C79.7747 78.1953 80.2697 78.0703 80.7497 78.0703C81.5497 78.0703 82.1297 78.3153 82.4897 78.8053C82.8497 79.2953 83.0297 79.9053 83.0297 80.6353V85.5553H81.8447V80.8003C81.8447 80.3003 81.7497 79.8903 81.5597 79.5703C81.3797 79.2503 81.0397 79.0903 80.5397 79.0903C80.1697 79.0903 79.7547 79.2203 79.2947 79.4803C78.8447 79.7303 78.4497 80.0403 78.1097 80.4103V85.5703ZM91.2091 82.1203H85.9291C85.9491 82.6303 86.0491 83.0853 86.2291 83.4853C86.4091 83.8853 86.6841 84.2003 87.0541 84.4303C87.4241 84.6603 87.9091 84.7753 88.5091 84.7753C88.9291 84.7753 89.3091 84.7203 89.6491 84.6103C89.9891 84.4903 90.3541 84.3353 90.7441 84.1453L91.1191 85.0153C90.7591 85.2153 90.3691 85.3903 89.9491 85.5403C89.5391 85.6803 89.0641 85.7503 88.5241 85.7503C87.6741 85.7503 86.9641 85.5903 86.3941 85.2703C85.8341 84.9403 85.4141 84.4903 85.1341 83.9203C84.8541 83.3403 84.7141 82.6703 84.7141 81.9103C84.7141 81.1703 84.8441 80.5153 85.1041 79.9453C85.3741 79.3653 85.7591 78.9153 86.2591 78.5953C86.7691 78.2653 87.3841 78.1003 88.1041 78.1003C88.8341 78.1003 89.4241 78.2753 89.8741 78.6253C90.3341 78.9753 90.6691 79.4453 90.8791 80.0353C91.0991 80.6253 91.2091 81.2803 91.2091 82.0003V82.1203ZM85.9591 81.3103H90.0391C89.9591 80.6503 89.7641 80.1203 89.4541 79.7203C89.1541 79.3103 88.6891 79.1053 88.0591 79.1053C87.4091 79.1053 86.9141 79.3103 86.5741 79.7203C86.2341 80.1303 86.0291 80.6603 85.9591 81.3103Z" fill="#858585"/>
<defs>
<linearGradient id="paint0_linear_1755_1873" x1="47.873" y1="0.49707" x2="47.873" y2="72.4971" gradientUnits="userSpaceOnUse">
<stop stop-color="#F00000"/>
<stop offset="1" stop-color="#9109F7"/>
</linearGradient>
</defs>
</svg>
