<svg width="75" height="94" viewBox="0 0 75 94" fill="none" xmlns="http://www.w3.org/2000/svg">
<path d="M19.139 53.4971H11.339V28.1771L4.49898 30.8171L1.55898 24.9971L13.919 19.5371H19.139V53.4971ZM54.1288 34.0571L54.7288 39.9971H44.3488V53.2571L37.0288 53.0171V39.9971H26.5288L26.0488 34.0571H37.0288V21.4571L44.3488 21.6371V34.0571H54.1288Z" fill="url(#paint0_linear_1755_1879)"/>
<path d="M6.19398 81.2053L6.29898 80.3203H9.58399L9.56898 85.0753C9.23898 85.2853 8.80398 85.4553 8.26398 85.5853C7.73398 85.7153 7.21898 85.7803 6.71898 85.7803C5.67898 85.7803 4.77398 85.5503 4.00398 85.0903C3.24398 84.6203 2.65398 83.9903 2.23398 83.2003C1.81398 82.4103 1.60398 81.5203 1.60398 80.5303C1.60398 79.7303 1.73398 79.0053 1.99398 78.3553C2.26398 77.6953 2.63398 77.1303 3.10398 76.6603C3.58398 76.1803 4.13898 75.8103 4.76898 75.5503C5.40898 75.2903 6.10398 75.1603 6.85398 75.1603C7.05398 75.1603 7.31398 75.1803 7.63398 75.2203C7.95398 75.2603 8.27398 75.3253 8.59398 75.4153C8.92398 75.4953 9.19898 75.6053 9.41898 75.7453L9.04398 76.6003C8.70398 76.4803 8.38398 76.3803 8.08398 76.3003C7.79398 76.2203 7.39398 76.1803 6.88398 76.1803C6.19398 76.1803 5.53898 76.3503 4.91898 76.6903C4.30898 77.0203 3.80898 77.5103 3.41898 78.1603C3.03898 78.8003 2.84898 79.5853 2.84898 80.5153C2.84898 81.3853 3.01398 82.1403 3.34398 82.7803C3.68398 83.4103 4.14398 83.8953 4.72398 84.2353C5.31398 84.5753 5.97398 84.7453 6.70398 84.7453C7.04398 84.7453 7.35898 84.7153 7.64898 84.6553C7.94898 84.5953 8.21398 84.5253 8.44398 84.4453V81.2053H6.19398ZM17.6533 82.1203H12.3733C12.3933 82.6303 12.4933 83.0853 12.6733 83.4853C12.8533 83.8853 13.1283 84.2003 13.4983 84.4303C13.8683 84.6603 14.3533 84.7753 14.9533 84.7753C15.3733 84.7753 15.7533 84.7203 16.0933 84.6103C16.4333 84.4903 16.7983 84.3353 17.1883 84.1453L17.5633 85.0153C17.2033 85.2153 16.8133 85.3903 16.3933 85.5403C15.9833 85.6803 15.5083 85.7503 14.9683 85.7503C14.1183 85.7503 13.4083 85.5903 12.8383 85.2703C12.2783 84.9403 11.8583 84.4903 11.5783 83.9203C11.2983 83.3403 11.1583 82.6703 11.1583 81.9103C11.1583 81.1703 11.2883 80.5153 11.5483 79.9453C11.8183 79.3653 12.2033 78.9153 12.7033 78.5953C13.2133 78.2653 13.8283 78.1003 14.5483 78.1003C15.2783 78.1003 15.8683 78.2753 16.3183 78.6253C16.7783 78.9753 17.1133 79.4453 17.3233 80.0353C17.5433 80.6253 17.6533 81.2803 17.6533 82.0003V82.1203ZM12.4033 81.3103H16.4833C16.4033 80.6503 16.2083 80.1203 15.8983 79.7203C15.5983 79.3103 15.1333 79.1053 14.5033 79.1053C13.8533 79.1053 13.3583 79.3103 13.0183 79.7203C12.6783 80.1303 12.4733 80.6603 12.4033 81.3103ZM22.2586 78.4153L22.6486 79.3153H20.9386V83.5153C20.9386 83.8853 21.0186 84.1853 21.1786 84.4153C21.3386 84.6453 21.6036 84.7603 21.9736 84.7603C22.0836 84.7603 22.1986 84.7453 22.3186 84.7153C22.4486 84.6753 22.5536 84.6403 22.6336 84.6103L22.9036 85.5403C22.7736 85.6003 22.6086 85.6553 22.4086 85.7053C22.2086 85.7653 22.0036 85.7953 21.7936 85.7953C21.1736 85.7953 20.6786 85.6153 20.3086 85.2553C19.9386 84.8953 19.7536 84.3703 19.7536 83.6803V79.3153H18.7036L18.6886 78.4153H19.7536V76.5553L20.9386 76.2253V78.4153H22.2586ZM31.2843 75.3703H32.4243L36.3393 85.4803L35.1693 85.6603L34.0293 82.6753H29.7243L28.6593 85.5703H27.5043L31.2843 75.3703ZM33.6843 81.7153L31.8393 76.9303L30.0543 81.7153H33.6843ZM44.5799 85.5703H43.4099L41.7599 80.0353L40.2149 85.5703H39.0599L36.9449 78.5203L38.0249 78.0703L39.6449 83.8753L41.1749 78.2953H42.3749L43.9949 83.8753L45.5249 78.2953H46.7249L44.5799 85.5703ZM48.733 79.6303L48.388 78.7303C48.578 78.6103 48.823 78.5053 49.123 78.4153C49.423 78.3153 49.723 78.2403 50.023 78.1903C50.333 78.1303 50.588 78.1003 50.788 78.1003C51.348 78.1003 51.838 78.2053 52.258 78.4153C52.688 78.6253 53.023 78.9153 53.263 79.2853C53.503 79.6553 53.623 80.0753 53.623 80.5453V85.5703H52.738L52.588 84.8353C52.348 85.0653 52.023 85.2753 51.613 85.4653C51.213 85.6553 50.813 85.7503 50.413 85.7503C49.573 85.7503 48.948 85.5353 48.538 85.1053C48.128 84.6753 47.923 84.1403 47.923 83.5003C47.923 82.7903 48.168 82.2453 48.658 81.8653C49.148 81.4753 49.778 81.2803 50.548 81.2803H52.423V80.8753C52.423 80.3753 52.303 79.9603 52.063 79.6303C51.823 79.3003 51.413 79.1353 50.833 79.1353C50.353 79.1353 49.948 79.1903 49.618 79.3003C49.298 79.4003 49.003 79.5103 48.733 79.6303ZM49.018 83.5003C49.018 83.8103 49.123 84.1053 49.333 84.3853C49.553 84.6653 49.903 84.8053 50.383 84.8053C50.803 84.8053 51.188 84.7003 51.538 84.4903C51.888 84.2803 52.188 84.0253 52.438 83.7253V82.0753H50.518C50.028 82.0753 49.653 82.2203 49.393 82.5103C49.143 82.7903 49.018 83.1203 49.018 83.5003ZM56.9273 85.5703H55.7273V78.2953H56.4473L56.8223 79.4653C57.0023 79.3153 57.2273 79.1503 57.4973 78.9703C57.7773 78.7803 58.0673 78.6203 58.3673 78.4903C58.6773 78.3603 58.9623 78.2953 59.2223 78.2953L59.5073 79.2403C59.2273 79.2403 58.9273 79.3053 58.6073 79.4353C58.2873 79.5653 57.9773 79.7353 57.6773 79.9453C57.3873 80.1453 57.1373 80.3503 56.9273 80.5603V85.5703ZM66.1105 85.5703L65.8705 85.0153C65.5705 85.2553 65.2455 85.4403 64.8955 85.5703C64.5455 85.7003 64.2205 85.7653 63.9205 85.7653C63.1905 85.7653 62.5655 85.6053 62.0455 85.2853C61.5255 84.9553 61.1305 84.5003 60.8605 83.9203C60.5905 83.3403 60.4555 82.6653 60.4555 81.8953C60.4555 81.1553 60.5955 80.5003 60.8755 79.9303C61.1555 79.3603 61.5555 78.9153 62.0755 78.5953C62.6055 78.2653 63.2305 78.1003 63.9505 78.1003C64.5005 78.1003 65.0605 78.2853 65.6305 78.6553V75.1303L66.8305 74.9953V85.5703H66.1105ZM61.6555 81.8803C61.6555 82.7203 61.8405 83.4103 62.2105 83.9503C62.5905 84.4903 63.1555 84.7603 63.9055 84.7603C64.2755 84.7603 64.5955 84.7003 64.8655 84.5803C65.1355 84.4603 65.3905 84.2903 65.6305 84.0703V79.7503C65.4005 79.5503 65.1505 79.3953 64.8805 79.2853C64.6105 79.1653 64.2905 79.1053 63.9205 79.1053C63.4305 79.1053 63.0155 79.2303 62.6755 79.4803C62.3355 79.7203 62.0805 80.0503 61.9105 80.4703C61.7405 80.8903 61.6555 81.3603 61.6555 81.8803ZM68.7846 85.1503L69.1596 84.2953C69.4396 84.4353 69.7446 84.5553 70.0746 84.6553C70.4146 84.7553 70.7646 84.8053 71.1246 84.8053C71.6646 84.8053 72.0946 84.7103 72.4146 84.5203C72.7446 84.3303 72.9096 84.0653 72.9096 83.7253C72.9096 83.4053 72.7296 83.1303 72.3696 82.9003C72.0196 82.6703 71.5996 82.4753 71.1096 82.3153C70.7296 82.1853 70.3546 82.0303 69.9846 81.8503C69.6246 81.6603 69.3246 81.4303 69.0846 81.1603C68.8546 80.8803 68.7396 80.5453 68.7396 80.1553C68.7396 79.5153 68.9796 79.0153 69.4596 78.6553C69.9496 78.2853 70.6146 78.1003 71.4546 78.1003C71.6546 78.1003 71.8946 78.1253 72.1746 78.1753C72.4646 78.2253 72.7446 78.3003 73.0146 78.4003C73.2946 78.5003 73.5296 78.6153 73.7196 78.7453L73.3446 79.5553C73.1046 79.4453 72.8296 79.3353 72.5196 79.2253C72.2096 79.1153 71.8446 79.0603 71.4246 79.0603C70.9746 79.0603 70.6046 79.1603 70.3146 79.3603C70.0346 79.5603 69.8946 79.8103 69.8946 80.1103C69.8946 80.3903 70.0546 80.6253 70.3746 80.8153C70.7046 81.0053 71.1096 81.1803 71.5896 81.3403C71.9796 81.4903 72.3596 81.6703 72.7296 81.8803C73.1096 82.0803 73.4196 82.3303 73.6596 82.6303C73.9096 82.9203 74.0346 83.2603 74.0346 83.6503C74.0346 84.3103 73.7846 84.8303 73.2846 85.2103C72.7846 85.5803 72.0596 85.7653 71.1096 85.7653C70.9096 85.7653 70.6646 85.7403 70.3746 85.6903C70.0846 85.6503 69.7946 85.5853 69.5046 85.4953C69.2146 85.3953 68.9746 85.2803 68.7846 85.1503Z" fill="#858585"/>
<defs>
<linearGradient id="paint0_linear_1755_1879" x1="28.959" y1="0.49707" x2="28.959" y2="72.4971" gradientUnits="userSpaceOnUse">
<stop stop-color="#F00000"/>
<stop offset="1" stop-color="#9109F7"/>
</linearGradient>
</defs>
</svg>
