<svg width="41" height="41" viewBox="0 0 41 41" fill="none" xmlns="http://www.w3.org/2000/svg">
<path d="M23.4449 29.4833V24.2833C23.4449 24.0535 23.3536 23.833 23.191 23.6705C23.0285 23.508 22.8081 23.4167 22.5782 23.4167H19.1116C18.8818 23.4167 18.6614 23.508 18.4988 23.6705C18.3363 23.833 18.245 24.0535 18.245 24.2833V29.4833C18.245 29.7131 18.1537 29.9335 17.9912 30.0961C17.8287 30.2586 17.6083 30.3499 17.3785 30.3499L12.1793 30.3506C12.0654 30.3506 11.9527 30.3282 11.8476 30.2847C11.7424 30.2411 11.6469 30.1773 11.5664 30.0968C11.4859 30.0163 11.422 29.9208 11.3785 29.8156C11.3349 29.7105 11.3125 29.5978 11.3125 29.484V19.4677C11.3125 19.347 11.3377 19.2276 11.3866 19.1171C11.4354 19.0067 11.5068 18.9077 11.5961 18.8265L20.2619 10.9471C20.4215 10.8021 20.6293 10.7217 20.8449 10.7217C21.0605 10.7217 21.2684 10.802 21.428 10.9471L30.095 18.8265C30.1843 18.9077 30.2557 19.0067 30.3045 19.1171C30.3534 19.2276 30.3786 19.347 30.3786 19.4677V29.484C30.3786 29.5978 30.3562 29.7105 30.3127 29.8156C30.2691 29.9208 30.2052 30.0163 30.1248 30.0968C30.0443 30.1773 29.9487 30.2411 29.8436 30.2847C29.7384 30.3282 29.6257 30.3506 29.5119 30.3506L24.3114 30.3499C24.0816 30.3499 23.8612 30.2586 23.6987 30.0961C23.5361 29.9335 23.4449 29.7131 23.4449 29.4833V29.4833Z" stroke="#D22238" stroke-width="1.8" stroke-linecap="round" stroke-linejoin="round"/>
</svg>
