<svg width="41" height="41" viewBox="0 0 41 41" fill="none" xmlns="http://www.w3.org/2000/svg">
<path d="M17.2647 19.6524C18.1461 21.4542 19.6066 22.9081 21.4125 23.7813C21.5446 23.8439 21.6907 23.871 21.8365 23.86C21.9823 23.8489 22.1227 23.8001 22.2439 23.7184L24.9029 21.9453C25.0205 21.8669 25.1558 21.819 25.2965 21.8061C25.4373 21.7932 25.579 21.8156 25.709 21.8712L30.6834 24.0031C30.8523 24.0749 30.9934 24.1997 31.0853 24.3586C31.1773 24.5175 31.215 24.702 31.193 24.8843C31.0358 26.1146 30.4355 27.2454 29.5045 28.065C28.5736 28.8846 27.3758 29.3367 26.1355 29.3368C22.3047 29.3368 18.6308 27.815 15.922 25.1062C13.2132 22.3974 11.6914 18.7235 11.6914 14.8927C11.6915 13.6524 12.1436 12.4546 12.9632 11.5237C13.7828 10.5927 14.9136 9.99246 16.1439 9.83524C16.3262 9.81318 16.5107 9.85095 16.6696 9.94287C16.8285 10.0348 16.9533 10.1759 17.0251 10.3448L19.1588 15.3236C19.214 15.4524 19.2365 15.5928 19.2243 15.7324C19.2121 15.8719 19.1655 16.0063 19.0888 16.1236L17.3219 18.8233C17.2415 18.9448 17.1939 19.085 17.1839 19.2303C17.1739 19.3756 17.2018 19.521 17.2647 19.6524Z" stroke="#D22238" stroke-width="1.8" stroke-linecap="round" stroke-linejoin="round"/>
</svg>
