<svg width="30" height="31" viewBox="0 0 30 31" fill="none" xmlns="http://www.w3.org/2000/svg">
<path d="M15.7203 14.9644V11.5298C15.7203 11.131 15.3988 10.8096 15 10.8096C14.6012 10.8096 14.2798 11.131 14.2798 11.5298V15.3215C14.2798 15.5477 14.3869 15.762 14.5655 15.8989L17.0953 17.7977C17.2203 17.893 17.3691 17.9406 17.5298 17.9406C17.762 17.9406 17.9703 17.8334 18.1072 17.6489C18.2203 17.4942 18.2739 17.3037 18.2441 17.1132C18.2143 16.9227 18.1191 16.7561 17.9643 16.637L15.7203 14.9644Z" fill="white"/>
<path d="M15.0001 7.02344C10.4524 7.02344 6.75 10.7259 6.75 15.2735C6.75 19.8212 10.4524 23.5236 15.0001 23.5236C19.5477 23.5236 23.2502 19.8212 23.2502 15.2735C23.2502 10.7259 19.5477 7.02344 15.0001 7.02344ZM21.8097 15.2735C21.8097 19.0295 18.7561 22.0831 15.0001 22.0831C11.2441 22.0831 8.19049 19.0295 8.19049 15.2735C8.19049 11.5175 11.2441 8.46393 15.0001 8.46393C18.7561 8.46393 21.8097 11.5175 21.8097 15.2735Z" fill="white"/>
</svg>
